<?xml version="1.0" encoding="utf-8"?>
<svg xmlns="http://www.w3.org/2000/svg" xmlns:xlink="http://www.w3.org/1999/xlink" width="520" height="300" viewBox="0 0 2080 1200">
<defs>
  <clipPath id="clip000">
    <rect x="0" y="0" width="2080" height="1200"/>
  </clipPath>
</defs>
<path clip-path="url(#clip000)" d="M0 1200 L2080 1200 L2080 0 L0 0  Z" fill="#ffffff" fill-rule="evenodd" fill-opacity="1"/>
<defs>
  <clipPath id="clip001">
    <rect x="239" y="115" width="1794" height="913"/>
  </clipPath>
</defs>
<path clip-path="url(#clip000)" d="M239.945 1027.6 L2032.76 1027.6 L2032.76 115.331 L239.945 115.331  Z" fill="#ffffff" fill-rule="evenodd" fill-opacity="1"/>
<polyline clip-path="url(#clip001)" style="stroke:#000000; stroke-linecap:round; stroke-linejoin:round; stroke-width:2; stroke-opacity:0.1; fill:none" points="290.685,1027.6 290.685,115.331 "/>
<polyline clip-path="url(#clip001)" style="stroke:#000000; stroke-linecap:round; stroke-linejoin:round; stroke-width:2; stroke-opacity:0.1; fill:none" points="683.924,1027.6 683.924,115.331 "/>
<polyline clip-path="url(#clip001)" style="stroke:#000000; stroke-linecap:round; stroke-linejoin:round; stroke-width:2; stroke-opacity:0.1; fill:none" points="1077.16,1027.6 1077.16,115.331 "/>
<polyline clip-path="url(#clip001)" style="stroke:#000000; stroke-linecap:round; stroke-linejoin:round; stroke-width:2; stroke-opacity:0.1; fill:none" points="1470.4,1027.6 1470.4,115.331 "/>
<polyline clip-path="url(#clip001)" style="stroke:#000000; stroke-linecap:round; stroke-linejoin:round; stroke-width:2; stroke-opacity:0.1; fill:none" points="1863.64,1027.6 1863.64,115.331 "/>
<polyline clip-path="url(#clip001)" style="stroke:#000000; stroke-linecap:round; stroke-linejoin:round; stroke-width:2; stroke-opacity:0.1; fill:none" points="239.945,942.48 2032.76,942.48 "/>
<polyline clip-path="url(#clip001)" style="stroke:#000000; stroke-linecap:round; stroke-linejoin:round; stroke-width:2; stroke-opacity:0.1; fill:none" points="239.945,782.082 2032.76,782.082 "/>
<polyline clip-path="url(#clip001)" style="stroke:#000000; stroke-linecap:round; stroke-linejoin:round; stroke-width:2; stroke-opacity:0.1; fill:none" points="239.945,621.684 2032.76,621.684 "/>
<polyline clip-path="url(#clip001)" style="stroke:#000000; stroke-linecap:round; stroke-linejoin:round; stroke-width:2; stroke-opacity:0.1; fill:none" points="239.945,461.286 2032.76,461.286 "/>
<polyline clip-path="url(#clip001)" style="stroke:#000000; stroke-linecap:round; stroke-linejoin:round; stroke-width:2; stroke-opacity:0.1; fill:none" points="239.945,300.888 2032.76,300.888 "/>
<polyline clip-path="url(#clip001)" style="stroke:#000000; stroke-linecap:round; stroke-linejoin:round; stroke-width:2; stroke-opacity:0.1; fill:none" points="239.945,140.489 2032.76,140.489 "/>
<polyline clip-path="url(#clip000)" style="stroke:#000000; stroke-linecap:round; stroke-linejoin:round; stroke-width:4; stroke-opacity:1; fill:none" points="239.945,1027.6 2032.76,1027.6 "/>
<polyline clip-path="url(#clip000)" style="stroke:#000000; stroke-linecap:round; stroke-linejoin:round; stroke-width:4; stroke-opacity:1; fill:none" points="290.685,1027.6 290.685,1008.7 "/>
<polyline clip-path="url(#clip000)" style="stroke:#000000; stroke-linecap:round; stroke-linejoin:round; stroke-width:4; stroke-opacity:1; fill:none" points="683.924,1027.6 683.924,1008.7 "/>
<polyline clip-path="url(#clip000)" style="stroke:#000000; stroke-linecap:round; stroke-linejoin:round; stroke-width:4; stroke-opacity:1; fill:none" points="1077.16,1027.6 1077.16,1008.7 "/>
<polyline clip-path="url(#clip000)" style="stroke:#000000; stroke-linecap:round; stroke-linejoin:round; stroke-width:4; stroke-opacity:1; fill:none" points="1470.4,1027.6 1470.4,1008.7 "/>
<polyline clip-path="url(#clip000)" style="stroke:#000000; stroke-linecap:round; stroke-linejoin:round; stroke-width:4; stroke-opacity:1; fill:none" points="1863.64,1027.6 1863.64,1008.7 "/>
<path clip-path="url(#clip000)" d="M255.141 1099.16 L262.78 1099.16 L262.78 1072.8 L254.47 1074.47 L254.47 1070.21 L262.734 1068.54 L267.41 1068.54 L267.41 1099.16 L275.049 1099.16 L275.049 1103.1 L255.141 1103.1 L255.141 1099.16 Z" fill="#000000" fill-rule="nonzero" fill-opacity="1" /><path clip-path="url(#clip000)" d="M294.493 1071.62 Q290.882 1071.62 289.053 1075.18 Q287.248 1078.72 287.248 1085.85 Q287.248 1092.96 289.053 1096.53 Q290.882 1100.07 294.493 1100.07 Q298.127 1100.07 299.933 1096.53 Q301.761 1092.96 301.761 1085.85 Q301.761 1078.72 299.933 1075.18 Q298.127 1071.62 294.493 1071.62 M294.493 1067.91 Q300.303 1067.91 303.359 1072.52 Q306.437 1077.1 306.437 1085.85 Q306.437 1094.58 303.359 1099.19 Q300.303 1103.77 294.493 1103.77 Q288.683 1103.77 285.604 1099.19 Q282.549 1094.58 282.549 1085.85 Q282.549 1077.1 285.604 1072.52 Q288.683 1067.91 294.493 1067.91 Z" fill="#000000" fill-rule="nonzero" fill-opacity="1" /><path clip-path="url(#clip000)" d="M319.114 1050.92 L309.522 1065.91 L319.114 1065.91 L319.114 1050.92 M318.117 1047.61 L322.894 1047.61 L322.894 1065.91 L326.9 1065.91 L326.9 1069.07 L322.894 1069.07 L322.894 1075.69 L319.114 1075.69 L319.114 1069.07 L306.437 1069.07 L306.437 1065.4 L318.117 1047.61 Z" fill="#000000" fill-rule="nonzero" fill-opacity="1" /><path clip-path="url(#clip000)" d="M649.527 1099.16 L657.166 1099.16 L657.166 1072.8 L648.856 1074.47 L648.856 1070.21 L657.12 1068.54 L661.796 1068.54 L661.796 1099.16 L669.434 1099.16 L669.434 1103.1 L649.527 1103.1 L649.527 1099.16 Z" fill="#000000" fill-rule="nonzero" fill-opacity="1" /><path clip-path="url(#clip000)" d="M688.879 1071.62 Q685.268 1071.62 683.439 1075.18 Q681.633 1078.72 681.633 1085.85 Q681.633 1092.96 683.439 1096.53 Q685.268 1100.07 688.879 1100.07 Q692.513 1100.07 694.319 1096.53 Q696.147 1092.96 696.147 1085.85 Q696.147 1078.72 694.319 1075.18 Q692.513 1071.62 688.879 1071.62 M688.879 1067.91 Q694.689 1067.91 697.744 1072.52 Q700.823 1077.1 700.823 1085.85 Q700.823 1094.58 697.744 1099.19 Q694.689 1103.77 688.879 1103.77 Q683.069 1103.77 679.99 1099.19 Q676.934 1094.58 676.934 1085.85 Q676.934 1077.1 679.99 1072.52 Q683.069 1067.91 688.879 1067.91 Z" fill="#000000" fill-rule="nonzero" fill-opacity="1" /><path clip-path="url(#clip000)" d="M702.008 1047.61 L716.923 1047.61 L716.923 1050.81 L705.487 1050.81 L705.487 1057.69 Q706.315 1057.41 707.143 1057.28 Q707.97 1057.13 708.798 1057.13 Q713.5 1057.13 716.245 1059.7 Q718.991 1062.28 718.991 1066.68 Q718.991 1071.21 716.17 1073.73 Q713.349 1076.23 708.215 1076.23 Q706.447 1076.23 704.603 1075.93 Q702.779 1075.63 700.823 1075.03 L700.823 1071.21 Q702.516 1072.13 704.321 1072.59 Q706.127 1073.04 708.139 1073.04 Q711.393 1073.04 713.293 1071.33 Q715.192 1069.61 715.192 1066.68 Q715.192 1063.75 713.293 1062.03 Q711.393 1060.32 708.139 1060.32 Q706.616 1060.32 705.092 1060.66 Q703.588 1061 702.008 1061.71 L702.008 1047.61 Z" fill="#000000" fill-rule="nonzero" fill-opacity="1" /><path clip-path="url(#clip000)" d="M1042.15 1099.16 L1049.79 1099.16 L1049.79 1072.8 L1041.48 1074.47 L1041.48 1070.21 L1049.75 1068.54 L1054.42 1068.54 L1054.42 1099.16 L1062.06 1099.16 L1062.06 1103.1 L1042.15 1103.1 L1042.15 1099.16 Z" fill="#000000" fill-rule="nonzero" fill-opacity="1" /><path clip-path="url(#clip000)" d="M1081.51 1071.62 Q1077.89 1071.62 1076.07 1075.18 Q1074.26 1078.72 1074.26 1085.85 Q1074.26 1092.96 1076.07 1096.53 Q1077.89 1100.07 1081.51 1100.07 Q1085.14 1100.07 1086.95 1096.53 Q1088.77 1092.96 1088.77 1085.85 Q1088.77 1078.72 1086.95 1075.18 Q1085.14 1071.62 1081.51 1071.62 M1081.51 1067.91 Q1087.32 1067.91 1090.37 1072.52 Q1093.45 1077.1 1093.45 1085.85 Q1093.45 1094.58 1090.37 1099.19 Q1087.32 1103.77 1081.51 1103.77 Q1075.7 1103.77 1072.62 1099.19 Q1069.56 1094.58 1069.56 1085.85 Q1069.56 1077.1 1072.62 1072.52 Q1075.7 1067.91 1081.51 1067.91 Z" fill="#000000" fill-rule="nonzero" fill-opacity="1" /><path clip-path="url(#clip000)" d="M1103.47 1060.13 Q1100.92 1060.13 1099.41 1061.88 Q1097.93 1063.63 1097.93 1066.68 Q1097.93 1069.71 1099.41 1071.48 Q1100.92 1073.23 1103.47 1073.23 Q1106.03 1073.23 1107.52 1071.48 Q1109.02 1069.71 1109.02 1066.68 Q1109.02 1063.63 1107.52 1061.88 Q1106.03 1060.13 1103.47 1060.13 M1111.02 1048.23 L1111.02 1051.69 Q1109.59 1051.01 1108.12 1050.66 Q1106.67 1050.3 1105.24 1050.3 Q1101.48 1050.3 1099.49 1052.84 Q1097.51 1055.38 1097.23 1060.51 Q1098.34 1058.87 1100.01 1058.01 Q1101.69 1057.13 1103.7 1057.13 Q1107.93 1057.13 1110.38 1059.7 Q1112.84 1062.26 1112.84 1066.68 Q1112.84 1071.01 1110.28 1073.62 Q1107.73 1076.23 1103.47 1076.23 Q1098.6 1076.23 1096.03 1072.51 Q1093.45 1068.77 1093.45 1061.68 Q1093.45 1055.02 1096.61 1051.07 Q1099.77 1047.1 1105.09 1047.1 Q1106.52 1047.1 1107.97 1047.38 Q1109.44 1047.67 1111.02 1048.23 Z" fill="#000000" fill-rule="nonzero" fill-opacity="1" /><path clip-path="url(#clip000)" d="M1436.06 1099.16 L1443.7 1099.16 L1443.7 1072.8 L1435.39 1074.47 L1435.39 1070.21 L1443.65 1068.54 L1448.33 1068.54 L1448.33 1099.16 L1455.97 1099.16 L1455.97 1103.1 L1436.06 1103.1 L1436.06 1099.16 Z" fill="#000000" fill-rule="nonzero" fill-opacity="1" /><path clip-path="url(#clip000)" d="M1475.41 1071.62 Q1471.8 1071.62 1469.97 1075.18 Q1468.17 1078.72 1468.17 1085.85 Q1468.17 1092.96 1469.97 1096.53 Q1471.8 1100.07 1475.41 1100.07 Q1479.05 1100.07 1480.85 1096.53 Q1482.68 1092.96 1482.68 1085.85 Q1482.68 1078.72 1480.85 1075.18 Q1479.05 1071.62 1475.41 1071.62 M1475.41 1067.91 Q1481.22 1067.91 1484.28 1072.52 Q1487.36 1077.1 1487.36 1085.85 Q1487.36 1094.58 1484.28 1099.19 Q1481.22 1103.77 1475.41 1103.77 Q1469.6 1103.77 1466.52 1099.19 Q1463.47 1094.58 1463.47 1085.85 Q1463.47 1077.1 1466.52 1072.52 Q1469.6 1067.91 1475.41 1067.91 Z" fill="#000000" fill-rule="nonzero" fill-opacity="1" /><path clip-path="url(#clip000)" d="M1487.36 1047.61 L1505.41 1047.61 L1505.41 1049.23 L1495.22 1075.69 L1491.25 1075.69 L1500.84 1050.81 L1487.36 1050.81 L1487.36 1047.61 Z" fill="#000000" fill-rule="nonzero" fill-opacity="1" /><path clip-path="url(#clip000)" d="M1828.7 1099.16 L1836.34 1099.16 L1836.34 1072.8 L1828.03 1074.47 L1828.03 1070.21 L1836.29 1068.54 L1840.97 1068.54 L1840.97 1099.16 L1848.6 1099.16 L1848.6 1103.1 L1828.7 1103.1 L1828.7 1099.16 Z" fill="#000000" fill-rule="nonzero" fill-opacity="1" /><path clip-path="url(#clip000)" d="M1868.05 1071.62 Q1864.44 1071.62 1862.61 1075.18 Q1860.8 1078.72 1860.8 1085.85 Q1860.8 1092.96 1862.61 1096.53 Q1864.44 1100.07 1868.05 1100.07 Q1871.68 1100.07 1873.49 1096.53 Q1875.32 1092.96 1875.32 1085.85 Q1875.32 1078.72 1873.49 1075.18 Q1871.68 1071.62 1868.05 1071.62 M1868.05 1067.91 Q1873.86 1067.91 1876.91 1072.52 Q1879.99 1077.1 1879.99 1085.85 Q1879.99 1094.58 1876.91 1099.19 Q1873.86 1103.77 1868.05 1103.77 Q1862.24 1103.77 1859.16 1099.19 Q1856.1 1094.58 1856.1 1085.85 Q1856.1 1077.1 1859.16 1072.52 Q1862.24 1067.91 1868.05 1067.91 Z" fill="#000000" fill-rule="nonzero" fill-opacity="1" /><path clip-path="url(#clip000)" d="M1889.62 1062.35 Q1886.91 1062.35 1885.35 1063.8 Q1883.81 1065.25 1883.81 1067.79 Q1883.81 1070.33 1885.35 1071.78 Q1886.91 1073.23 1889.62 1073.23 Q1892.33 1073.23 1893.89 1071.78 Q1895.45 1070.31 1895.45 1067.79 Q1895.45 1065.25 1893.89 1063.8 Q1892.35 1062.35 1889.62 1062.35 M1885.82 1060.74 Q1883.38 1060.13 1882.01 1058.46 Q1880.65 1056.79 1880.65 1054.38 Q1880.65 1051.01 1883.04 1049.06 Q1885.45 1047.1 1889.62 1047.1 Q1893.82 1047.1 1896.21 1049.06 Q1898.59 1051.01 1898.59 1054.38 Q1898.59 1056.79 1897.22 1058.46 Q1895.87 1060.13 1893.44 1060.74 Q1896.19 1061.38 1897.71 1063.24 Q1899.25 1065.1 1899.25 1067.79 Q1899.25 1071.87 1896.75 1074.05 Q1894.27 1076.23 1889.62 1076.23 Q1884.98 1076.23 1882.48 1074.05 Q1879.99 1071.87 1879.99 1067.79 Q1879.99 1065.1 1881.54 1063.24 Q1883.08 1061.38 1885.82 1060.74 M1884.43 1054.74 Q1884.43 1056.92 1885.79 1058.14 Q1887.16 1059.36 1889.62 1059.36 Q1892.07 1059.36 1893.44 1058.14 Q1894.83 1056.92 1894.83 1054.74 Q1894.83 1052.56 1893.44 1051.33 Q1892.07 1050.11 1889.62 1050.11 Q1887.16 1050.11 1885.79 1051.33 Q1884.43 1052.56 1884.43 1054.74 Z" fill="#000000" fill-rule="nonzero" fill-opacity="1" /><path clip-path="url(#clip000)" d="M1028.23 1180.74 L1028.23 1199.65 L1022.34 1199.65 L1022.34 1150.44 L1028.23 1150.44 L1028.23 1155.85 Q1030.08 1152.67 1032.88 1151.14 Q1035.71 1149.58 1039.62 1149.58 Q1046.12 1149.58 1050.16 1154.74 Q1054.23 1159.89 1054.23 1168.3 Q1054.23 1176.7 1050.16 1181.85 Q1046.12 1187.01 1039.62 1187.01 Q1035.71 1187.01 1032.88 1185.48 Q1030.08 1183.92 1028.23 1180.74 M1048.15 1168.3 Q1048.15 1161.83 1045.48 1158.17 Q1042.84 1154.48 1038.19 1154.48 Q1033.54 1154.48 1030.87 1158.17 Q1028.23 1161.83 1028.23 1168.3 Q1028.23 1174.76 1030.87 1178.45 Q1033.54 1182.11 1038.19 1182.11 Q1042.84 1182.11 1045.48 1178.45 Q1048.15 1174.76 1048.15 1168.3 Z" fill="#000000" fill-rule="nonzero" fill-opacity="1" /><path clip-path="url(#clip000)" d="M1077.82 1145.63 L1077.82 1148.69 Q1076.26 1147.93 1074.7 1147.54 Q1073.11 1147.16 1071.52 1147.16 Q1067.92 1147.16 1065.95 1149.2 Q1063.94 1151.2 1063.94 1154.86 Q1063.94 1158.52 1065.95 1160.53 Q1067.92 1162.57 1071.52 1162.57 Q1073.11 1162.57 1074.7 1162.18 Q1076.26 1161.8 1077.82 1161.04 L1077.82 1164.06 Q1076.29 1164.7 1074.63 1165.02 Q1072.98 1165.34 1071.1 1165.34 Q1066.04 1165.34 1063.05 1162.5 Q1060.06 1159.67 1060.06 1154.86 Q1060.06 1149.99 1063.08 1147.19 Q1066.1 1144.39 1071.36 1144.39 Q1073.04 1144.39 1074.67 1144.68 Q1076.29 1145 1077.82 1145.63 Z" fill="#000000" fill-rule="nonzero" fill-opacity="1" /><path clip-path="url(#clip000)" d="M1100.07 1164.54 Q1098.47 1161.8 1095.26 1161.8 Q1092.05 1161.8 1090.45 1164.54 Q1088.83 1167.28 1088.83 1172.75 Q1088.83 1178.26 1090.45 1181 Q1092.05 1183.73 1095.26 1183.73 Q1098.47 1183.73 1100.07 1181 Q1101.69 1178.26 1101.69 1172.75 Q1101.69 1167.28 1100.07 1164.54 M1095.26 1158.97 Q1100.38 1158.97 1103.09 1162.5 Q1105.8 1166.04 1105.8 1172.75 Q1105.8 1179.5 1103.09 1183.03 Q1100.38 1186.57 1095.26 1186.57 Q1090.1 1186.57 1087.4 1183.03 Q1084.69 1179.5 1084.69 1172.75 Q1084.69 1166.04 1087.4 1162.5 Q1090.1 1158.97 1095.26 1158.97 Z" fill="#000000" fill-rule="nonzero" fill-opacity="1" /><path clip-path="url(#clip000)" d="M1134.38 1136.56 L1147.87 1136.56 L1147.87 1141.11 L1140.23 1141.11 L1140.23 1190.13 L1147.87 1190.13 L1147.87 1194.68 L1134.38 1194.68 L1134.38 1136.56 Z" fill="#000000" fill-rule="nonzero" fill-opacity="1" /><path clip-path="url(#clip000)" d="M1167.03 1143.85 L1167.03 1161.71 L1175.12 1161.71 Q1179.61 1161.71 1182.06 1159.38 Q1184.51 1157.06 1184.51 1152.76 Q1184.51 1148.5 1182.06 1146.18 Q1179.61 1143.85 1175.12 1143.85 L1167.03 1143.85 M1160.6 1138.57 L1175.12 1138.57 Q1183.11 1138.57 1187.18 1142.2 Q1191.29 1145.79 1191.29 1152.76 Q1191.29 1159.8 1187.18 1163.39 Q1183.11 1166.99 1175.12 1166.99 L1167.03 1166.99 L1167.03 1186.09 L1160.6 1186.09 L1160.6 1138.57 Z" fill="#000000" fill-rule="nonzero" fill-opacity="1" /><path clip-path="url(#clip000)" d="M1212.93 1168.17 Q1205.83 1168.17 1203.09 1169.79 Q1200.36 1171.42 1200.36 1175.33 Q1200.36 1178.45 1202.39 1180.3 Q1204.46 1182.11 1208 1182.11 Q1212.87 1182.11 1215.79 1178.67 Q1218.75 1175.2 1218.75 1169.47 L1218.75 1168.17 L1212.93 1168.17 M1224.61 1165.75 L1224.61 1186.09 L1218.75 1186.09 L1218.75 1180.68 Q1216.75 1183.92 1213.76 1185.48 Q1210.77 1187.01 1206.44 1187.01 Q1200.96 1187.01 1197.72 1183.96 Q1194.5 1180.87 1194.5 1175.71 Q1194.5 1169.7 1198.51 1166.64 Q1202.55 1163.59 1210.54 1163.59 L1218.75 1163.59 L1218.75 1163.01 Q1218.75 1158.97 1216.08 1156.77 Q1213.44 1154.55 1208.63 1154.55 Q1205.58 1154.55 1202.68 1155.28 Q1199.78 1156.01 1197.11 1157.47 L1197.11 1152.06 Q1200.33 1150.82 1203.35 1150.22 Q1206.37 1149.58 1209.24 1149.58 Q1216.97 1149.58 1220.79 1153.59 Q1224.61 1157.6 1224.61 1165.75 Z" fill="#000000" fill-rule="nonzero" fill-opacity="1" /><path clip-path="url(#clip000)" d="M1250.36 1136.56 L1250.36 1194.68 L1236.87 1194.68 L1236.87 1190.13 L1244.47 1190.13 L1244.47 1141.11 L1236.87 1141.11 L1236.87 1136.56 L1250.36 1136.56 Z" fill="#000000" fill-rule="nonzero" fill-opacity="1" /><polyline clip-path="url(#clip000)" style="stroke:#000000; stroke-linecap:round; stroke-linejoin:round; stroke-width:4; stroke-opacity:1; fill:none" points="239.945,1027.6 239.945,115.331 "/>
<polyline clip-path="url(#clip000)" style="stroke:#000000; stroke-linecap:round; stroke-linejoin:round; stroke-width:4; stroke-opacity:1; fill:none" points="239.945,942.48 258.843,942.48 "/>
<polyline clip-path="url(#clip000)" style="stroke:#000000; stroke-linecap:round; stroke-linejoin:round; stroke-width:4; stroke-opacity:1; fill:none" points="239.945,782.082 258.843,782.082 "/>
<polyline clip-path="url(#clip000)" style="stroke:#000000; stroke-linecap:round; stroke-linejoin:round; stroke-width:4; stroke-opacity:1; fill:none" points="239.945,621.684 258.843,621.684 "/>
<polyline clip-path="url(#clip000)" style="stroke:#000000; stroke-linecap:round; stroke-linejoin:round; stroke-width:4; stroke-opacity:1; fill:none" points="239.945,461.286 258.843,461.286 "/>
<polyline clip-path="url(#clip000)" style="stroke:#000000; stroke-linecap:round; stroke-linejoin:round; stroke-width:4; stroke-opacity:1; fill:none" points="239.945,300.888 258.843,300.888 "/>
<polyline clip-path="url(#clip000)" style="stroke:#000000; stroke-linecap:round; stroke-linejoin:round; stroke-width:4; stroke-opacity:1; fill:none" points="239.945,140.489 258.843,140.489 "/>
<path clip-path="url(#clip000)" d="M122.403 928.279 Q118.792 928.279 116.963 931.843 Q115.158 935.385 115.158 942.515 Q115.158 949.621 116.963 953.186 Q118.792 956.727 122.403 956.727 Q126.037 956.727 127.843 953.186 Q129.671 949.621 129.671 942.515 Q129.671 935.385 127.843 931.843 Q126.037 928.279 122.403 928.279 M122.403 924.575 Q128.213 924.575 131.269 929.181 Q134.347 933.765 134.347 942.515 Q134.347 951.241 131.269 955.848 Q128.213 960.431 122.403 960.431 Q116.593 960.431 113.514 955.848 Q110.459 951.241 110.459 942.515 Q110.459 933.765 113.514 929.181 Q116.593 924.575 122.403 924.575 Z" fill="#000000" fill-rule="nonzero" fill-opacity="1" /><path clip-path="url(#clip000)" d="M142.565 953.88 L147.449 953.88 L147.449 959.76 L142.565 959.76 L142.565 953.88 Z" fill="#000000" fill-rule="nonzero" fill-opacity="1" /><path clip-path="url(#clip000)" d="M156.454 925.2 L178.676 925.2 L178.676 927.191 L166.13 959.76 L161.245 959.76 L173.051 929.135 L156.454 929.135 L156.454 925.2 Z" fill="#000000" fill-rule="nonzero" fill-opacity="1" /><path clip-path="url(#clip000)" d="M187.842 925.2 L206.199 925.2 L206.199 929.135 L192.125 929.135 L192.125 937.607 Q193.143 937.26 194.162 937.098 Q195.18 936.913 196.199 936.913 Q201.986 936.913 205.365 940.084 Q208.745 943.255 208.745 948.672 Q208.745 954.251 205.273 957.352 Q201.801 960.431 195.481 960.431 Q193.305 960.431 191.037 960.061 Q188.792 959.69 186.384 958.95 L186.384 954.251 Q188.467 955.385 190.69 955.94 Q192.912 956.496 195.389 956.496 Q199.393 956.496 201.731 954.389 Q204.069 952.283 204.069 948.672 Q204.069 945.061 201.731 942.954 Q199.393 940.848 195.389 940.848 Q193.514 940.848 191.639 941.265 Q189.787 941.681 187.842 942.561 L187.842 925.2 Z" fill="#000000" fill-rule="nonzero" fill-opacity="1" /><path clip-path="url(#clip000)" d="M121.408 767.88 Q117.797 767.88 115.968 771.445 Q114.162 774.987 114.162 782.116 Q114.162 789.223 115.968 792.788 Q117.797 796.329 121.408 796.329 Q125.042 796.329 126.847 792.788 Q128.676 789.223 128.676 782.116 Q128.676 774.987 126.847 771.445 Q125.042 767.88 121.408 767.88 M121.408 764.177 Q127.218 764.177 130.273 768.783 Q133.352 773.367 133.352 782.116 Q133.352 790.843 130.273 795.45 Q127.218 800.033 121.408 800.033 Q115.597 800.033 112.519 795.45 Q109.463 790.843 109.463 782.116 Q109.463 773.367 112.519 768.783 Q115.597 764.177 121.408 764.177 Z" fill="#000000" fill-rule="nonzero" fill-opacity="1" /><path clip-path="url(#clip000)" d="M141.57 793.482 L146.454 793.482 L146.454 799.362 L141.57 799.362 L141.57 793.482 Z" fill="#000000" fill-rule="nonzero" fill-opacity="1" /><path clip-path="url(#clip000)" d="M166.639 782.95 Q163.306 782.95 161.384 784.732 Q159.486 786.515 159.486 789.64 Q159.486 792.765 161.384 794.547 Q163.306 796.329 166.639 796.329 Q169.972 796.329 171.893 794.547 Q173.815 792.741 173.815 789.64 Q173.815 786.515 171.893 784.732 Q169.995 782.95 166.639 782.95 M161.963 780.959 Q158.954 780.218 157.264 778.158 Q155.597 776.098 155.597 773.135 Q155.597 768.992 158.537 766.584 Q161.5 764.177 166.639 764.177 Q171.801 764.177 174.741 766.584 Q177.68 768.992 177.68 773.135 Q177.68 776.098 175.991 778.158 Q174.324 780.218 171.338 780.959 Q174.718 781.746 176.593 784.038 Q178.491 786.329 178.491 789.64 Q178.491 794.663 175.412 797.348 Q172.356 800.033 166.639 800.033 Q160.921 800.033 157.843 797.348 Q154.787 794.663 154.787 789.64 Q154.787 786.329 156.685 784.038 Q158.583 781.746 161.963 780.959 M160.25 773.575 Q160.25 776.26 161.917 777.765 Q163.606 779.269 166.639 779.269 Q169.648 779.269 171.338 777.765 Q173.051 776.26 173.051 773.575 Q173.051 770.89 171.338 769.385 Q169.648 767.88 166.639 767.88 Q163.606 767.88 161.917 769.385 Q160.25 770.89 160.25 773.575 Z" fill="#000000" fill-rule="nonzero" fill-opacity="1" /><path clip-path="url(#clip000)" d="M196.801 767.88 Q193.19 767.88 191.361 771.445 Q189.555 774.987 189.555 782.116 Q189.555 789.223 191.361 792.788 Q193.19 796.329 196.801 796.329 Q200.435 796.329 202.241 792.788 Q204.069 789.223 204.069 782.116 Q204.069 774.987 202.241 771.445 Q200.435 767.88 196.801 767.88 M196.801 764.177 Q202.611 764.177 205.666 768.783 Q208.745 773.367 208.745 782.116 Q208.745 790.843 205.666 795.45 Q202.611 800.033 196.801 800.033 Q190.991 800.033 187.912 795.45 Q184.856 790.843 184.856 782.116 Q184.856 773.367 187.912 768.783 Q190.991 764.177 196.801 764.177 Z" fill="#000000" fill-rule="nonzero" fill-opacity="1" /><path clip-path="url(#clip000)" d="M122.403 607.482 Q118.792 607.482 116.963 611.047 Q115.158 614.589 115.158 621.718 Q115.158 628.825 116.963 632.39 Q118.792 635.931 122.403 635.931 Q126.037 635.931 127.843 632.39 Q129.671 628.825 129.671 621.718 Q129.671 614.589 127.843 611.047 Q126.037 607.482 122.403 607.482 M122.403 603.779 Q128.213 603.779 131.269 608.385 Q134.347 612.968 134.347 621.718 Q134.347 630.445 131.269 635.052 Q128.213 639.635 122.403 639.635 Q116.593 639.635 113.514 635.052 Q110.459 630.445 110.459 621.718 Q110.459 612.968 113.514 608.385 Q116.593 603.779 122.403 603.779 Z" fill="#000000" fill-rule="nonzero" fill-opacity="1" /><path clip-path="url(#clip000)" d="M142.565 633.084 L147.449 633.084 L147.449 638.964 L142.565 638.964 L142.565 633.084 Z" fill="#000000" fill-rule="nonzero" fill-opacity="1" /><path clip-path="url(#clip000)" d="M167.634 622.552 Q164.301 622.552 162.38 624.334 Q160.481 626.117 160.481 629.242 Q160.481 632.366 162.38 634.149 Q164.301 635.931 167.634 635.931 Q170.968 635.931 172.889 634.149 Q174.81 632.343 174.81 629.242 Q174.81 626.117 172.889 624.334 Q170.991 622.552 167.634 622.552 M162.958 620.561 Q159.949 619.82 158.259 617.76 Q156.593 615.7 156.593 612.737 Q156.593 608.593 159.532 606.186 Q162.495 603.779 167.634 603.779 Q172.796 603.779 175.736 606.186 Q178.676 608.593 178.676 612.737 Q178.676 615.7 176.986 617.76 Q175.319 619.82 172.333 620.561 Q175.713 621.348 177.588 623.64 Q179.486 625.931 179.486 629.242 Q179.486 634.265 176.407 636.95 Q173.352 639.635 167.634 639.635 Q161.917 639.635 158.838 636.95 Q155.782 634.265 155.782 629.242 Q155.782 625.931 157.681 623.64 Q159.579 621.348 162.958 620.561 M161.245 613.177 Q161.245 615.862 162.912 617.367 Q164.602 618.871 167.634 618.871 Q170.643 618.871 172.333 617.367 Q174.046 615.862 174.046 613.177 Q174.046 610.492 172.333 608.987 Q170.643 607.482 167.634 607.482 Q164.602 607.482 162.912 608.987 Q161.245 610.492 161.245 613.177 Z" fill="#000000" fill-rule="nonzero" fill-opacity="1" /><path clip-path="url(#clip000)" d="M187.842 604.404 L206.199 604.404 L206.199 608.339 L192.125 608.339 L192.125 616.811 Q193.143 616.464 194.162 616.302 Q195.18 616.117 196.199 616.117 Q201.986 616.117 205.365 619.288 Q208.745 622.459 208.745 627.876 Q208.745 633.454 205.273 636.556 Q201.801 639.635 195.481 639.635 Q193.305 639.635 191.037 639.265 Q188.792 638.894 186.384 638.154 L186.384 633.454 Q188.467 634.589 190.69 635.144 Q192.912 635.7 195.389 635.7 Q199.393 635.7 201.731 633.593 Q204.069 631.487 204.069 627.876 Q204.069 624.265 201.731 622.158 Q199.393 620.052 195.389 620.052 Q193.514 620.052 191.639 620.468 Q189.787 620.885 187.842 621.765 L187.842 604.404 Z" fill="#000000" fill-rule="nonzero" fill-opacity="1" /><path clip-path="url(#clip000)" d="M121.408 447.084 Q117.797 447.084 115.968 450.649 Q114.162 454.191 114.162 461.32 Q114.162 468.427 115.968 471.992 Q117.797 475.533 121.408 475.533 Q125.042 475.533 126.847 471.992 Q128.676 468.427 128.676 461.32 Q128.676 454.191 126.847 450.649 Q125.042 447.084 121.408 447.084 M121.408 443.381 Q127.218 443.381 130.273 447.987 Q133.352 452.57 133.352 461.32 Q133.352 470.047 130.273 474.654 Q127.218 479.237 121.408 479.237 Q115.597 479.237 112.519 474.654 Q109.463 470.047 109.463 461.32 Q109.463 452.57 112.519 447.987 Q115.597 443.381 121.408 443.381 Z" fill="#000000" fill-rule="nonzero" fill-opacity="1" /><path clip-path="url(#clip000)" d="M141.57 472.686 L146.454 472.686 L146.454 478.566 L141.57 478.566 L141.57 472.686 Z" fill="#000000" fill-rule="nonzero" fill-opacity="1" /><path clip-path="url(#clip000)" d="M156.778 477.848 L156.778 473.589 Q158.537 474.422 160.343 474.862 Q162.148 475.302 163.884 475.302 Q168.514 475.302 170.944 472.2 Q173.398 469.075 173.745 462.732 Q172.403 464.723 170.343 465.788 Q168.282 466.853 165.782 466.853 Q160.597 466.853 157.565 463.728 Q154.556 460.58 154.556 455.14 Q154.556 449.816 157.704 446.598 Q160.852 443.381 166.083 443.381 Q172.079 443.381 175.227 447.987 Q178.398 452.57 178.398 461.32 Q178.398 469.492 174.509 474.376 Q170.643 479.237 164.093 479.237 Q162.333 479.237 160.528 478.89 Q158.722 478.542 156.778 477.848 M166.083 463.195 Q169.231 463.195 171.06 461.043 Q172.912 458.89 172.912 455.14 Q172.912 451.413 171.06 449.26 Q169.231 447.084 166.083 447.084 Q162.935 447.084 161.083 449.26 Q159.255 451.413 159.255 455.14 Q159.255 458.89 161.083 461.043 Q162.935 463.195 166.083 463.195 Z" fill="#000000" fill-rule="nonzero" fill-opacity="1" /><path clip-path="url(#clip000)" d="M196.801 447.084 Q193.19 447.084 191.361 450.649 Q189.555 454.191 189.555 461.32 Q189.555 468.427 191.361 471.992 Q193.19 475.533 196.801 475.533 Q200.435 475.533 202.241 471.992 Q204.069 468.427 204.069 461.32 Q204.069 454.191 202.241 450.649 Q200.435 447.084 196.801 447.084 M196.801 443.381 Q202.611 443.381 205.666 447.987 Q208.745 452.57 208.745 461.32 Q208.745 470.047 205.666 474.654 Q202.611 479.237 196.801 479.237 Q190.991 479.237 187.912 474.654 Q184.856 470.047 184.856 461.32 Q184.856 452.57 187.912 447.987 Q190.991 443.381 196.801 443.381 Z" fill="#000000" fill-rule="nonzero" fill-opacity="1" /><path clip-path="url(#clip000)" d="M122.403 286.686 Q118.792 286.686 116.963 290.251 Q115.158 293.793 115.158 300.922 Q115.158 308.029 116.963 311.593 Q118.792 315.135 122.403 315.135 Q126.037 315.135 127.843 311.593 Q129.671 308.029 129.671 300.922 Q129.671 293.793 127.843 290.251 Q126.037 286.686 122.403 286.686 M122.403 282.983 Q128.213 282.983 131.269 287.589 Q134.347 292.172 134.347 300.922 Q134.347 309.649 131.269 314.256 Q128.213 318.839 122.403 318.839 Q116.593 318.839 113.514 314.256 Q110.459 309.649 110.459 300.922 Q110.459 292.172 113.514 287.589 Q116.593 282.983 122.403 282.983 Z" fill="#000000" fill-rule="nonzero" fill-opacity="1" /><path clip-path="url(#clip000)" d="M142.565 312.288 L147.449 312.288 L147.449 318.168 L142.565 318.168 L142.565 312.288 Z" fill="#000000" fill-rule="nonzero" fill-opacity="1" /><path clip-path="url(#clip000)" d="M157.773 317.45 L157.773 313.191 Q159.532 314.024 161.338 314.464 Q163.144 314.904 164.88 314.904 Q169.509 314.904 171.94 311.802 Q174.393 308.677 174.741 302.334 Q173.398 304.325 171.338 305.39 Q169.278 306.455 166.778 306.455 Q161.593 306.455 158.56 303.33 Q155.551 300.182 155.551 294.742 Q155.551 289.418 158.699 286.2 Q161.847 282.983 167.079 282.983 Q173.074 282.983 176.222 287.589 Q179.393 292.172 179.393 300.922 Q179.393 309.094 175.505 313.978 Q171.639 318.839 165.088 318.839 Q163.329 318.839 161.523 318.492 Q159.718 318.144 157.773 317.45 M167.079 302.797 Q170.227 302.797 172.055 300.644 Q173.907 298.492 173.907 294.742 Q173.907 291.015 172.055 288.862 Q170.227 286.686 167.079 286.686 Q163.931 286.686 162.079 288.862 Q160.25 291.015 160.25 294.742 Q160.25 298.492 162.079 300.644 Q163.931 302.797 167.079 302.797 Z" fill="#000000" fill-rule="nonzero" fill-opacity="1" /><path clip-path="url(#clip000)" d="M187.842 283.608 L206.199 283.608 L206.199 287.543 L192.125 287.543 L192.125 296.015 Q193.143 295.668 194.162 295.506 Q195.18 295.32 196.199 295.32 Q201.986 295.32 205.365 298.492 Q208.745 301.663 208.745 307.08 Q208.745 312.658 205.273 315.76 Q201.801 318.839 195.481 318.839 Q193.305 318.839 191.037 318.468 Q188.792 318.098 186.384 317.357 L186.384 312.658 Q188.467 313.793 190.69 314.348 Q192.912 314.904 195.389 314.904 Q199.393 314.904 201.731 312.797 Q204.069 310.691 204.069 307.08 Q204.069 303.469 201.731 301.362 Q199.393 299.256 195.389 299.256 Q193.514 299.256 191.639 299.672 Q189.787 300.089 187.842 300.969 L187.842 283.608 Z" fill="#000000" fill-rule="nonzero" fill-opacity="1" /><path clip-path="url(#clip000)" d="M112.218 153.834 L119.857 153.834 L119.857 127.469 L111.547 129.135 L111.547 124.876 L119.81 123.209 L124.486 123.209 L124.486 153.834 L132.125 153.834 L132.125 157.769 L112.218 157.769 L112.218 153.834 Z" fill="#000000" fill-rule="nonzero" fill-opacity="1" /><path clip-path="url(#clip000)" d="M141.57 151.89 L146.454 151.89 L146.454 157.769 L141.57 157.769 L141.57 151.89 Z" fill="#000000" fill-rule="nonzero" fill-opacity="1" /><path clip-path="url(#clip000)" d="M166.639 126.288 Q163.028 126.288 161.199 129.853 Q159.394 133.395 159.394 140.524 Q159.394 147.631 161.199 151.195 Q163.028 154.737 166.639 154.737 Q170.273 154.737 172.079 151.195 Q173.907 147.631 173.907 140.524 Q173.907 133.395 172.079 129.853 Q170.273 126.288 166.639 126.288 M166.639 122.584 Q172.449 122.584 175.505 127.191 Q178.583 131.774 178.583 140.524 Q178.583 149.251 175.505 153.857 Q172.449 158.441 166.639 158.441 Q160.829 158.441 157.75 153.857 Q154.694 149.251 154.694 140.524 Q154.694 131.774 157.75 127.191 Q160.829 122.584 166.639 122.584 Z" fill="#000000" fill-rule="nonzero" fill-opacity="1" /><path clip-path="url(#clip000)" d="M196.801 126.288 Q193.19 126.288 191.361 129.853 Q189.555 133.395 189.555 140.524 Q189.555 147.631 191.361 151.195 Q193.19 154.737 196.801 154.737 Q200.435 154.737 202.241 151.195 Q204.069 147.631 204.069 140.524 Q204.069 133.395 202.241 129.853 Q200.435 126.288 196.801 126.288 M196.801 122.584 Q202.611 122.584 205.666 127.191 Q208.745 131.774 208.745 140.524 Q208.745 149.251 205.666 153.857 Q202.611 158.441 196.801 158.441 Q190.991 158.441 187.912 153.857 Q184.856 149.251 184.856 140.524 Q184.856 131.774 187.912 127.191 Q190.991 122.584 196.801 122.584 Z" fill="#000000" fill-rule="nonzero" fill-opacity="1" /><path clip-path="url(#clip000)" d="M18.0468 609.58 L24.3171 609.58 Q22.5665 613.24 21.7071 616.486 Q20.8477 619.733 20.8477 622.757 Q20.8477 628.008 22.8848 630.873 Q24.9218 633.706 28.6776 633.706 Q31.8286 633.706 33.4518 631.828 Q35.0433 629.918 36.03 624.635 L36.8257 620.751 Q38.1943 613.558 41.6636 610.153 Q45.1011 606.715 50.8939 606.715 Q57.8007 606.715 61.3655 611.362 Q64.9303 615.977 64.9303 624.921 Q64.9303 628.295 64.1664 632.114 Q63.4025 635.902 61.9066 639.976 L55.2862 639.976 Q57.4824 636.061 58.5964 632.305 Q59.7104 628.549 59.7104 624.921 Q59.7104 619.415 57.546 616.423 Q55.3817 613.431 51.3713 613.431 Q47.8702 613.431 45.8968 615.595 Q43.9234 617.728 42.9367 622.629 L42.1729 626.544 Q40.7406 633.738 37.685 636.952 Q34.6295 640.167 29.1868 640.167 Q22.8848 640.167 19.2563 635.743 Q15.6279 631.287 15.6279 623.489 Q15.6279 620.147 16.2326 616.677 Q16.8373 613.208 18.0468 609.58 Z" fill="#000000" fill-rule="nonzero" fill-opacity="1" /><path clip-path="url(#clip000)" d="M36.2846 599.204 L36.2846 595.511 L64.0072 595.511 L64.0072 599.204 L36.2846 599.204 Z" fill="#000000" fill-rule="nonzero" fill-opacity="1" /><path clip-path="url(#clip000)" d="M14.482 565.943 L14.482 552.447 L19.0335 552.447 L19.0335 560.086 L68.0495 560.086 L68.0495 552.447 L72.6009 552.447 L72.6009 565.943 L14.482 565.943 Z" fill="#000000" fill-rule="nonzero" fill-opacity="1" /><path clip-path="url(#clip000)" d="M43.5415 542.931 L43.5415 525.775 L48.7614 525.775 L48.7614 542.931 L43.5415 542.931 Z" fill="#000000" fill-rule="nonzero" fill-opacity="1" /><path clip-path="url(#clip000)" d="M14.482 502.763 L72.6009 502.763 L72.6009 516.258 L68.0495 516.258 L68.0495 508.651 L19.0335 508.651 L19.0335 516.258 L14.482 516.258 L14.482 502.763 Z" fill="#000000" fill-rule="nonzero" fill-opacity="1" /><path clip-path="url(#clip000)" d="M820.096 44.2197 Q822.73 45.1109 825.201 48.0275 Q827.712 50.9442 830.224 56.0483 L838.528 72.576 L829.738 72.576 L822 57.061 Q819.003 50.9847 816.167 48.9997 Q813.372 47.0148 808.511 47.0148 L799.599 47.0148 L799.599 72.576 L791.416 72.576 L791.416 12.096 L809.888 12.096 Q820.258 12.096 825.363 16.4305 Q830.467 20.7649 830.467 29.5149 Q830.467 35.2267 827.793 38.994 Q825.16 42.7613 820.096 44.2197 M799.599 18.8205 L799.599 40.2903 L809.888 40.2903 Q815.802 40.2903 818.8 37.5762 Q821.838 34.8216 821.838 29.5149 Q821.838 24.2082 818.8 21.5346 Q815.802 18.8205 809.888 18.8205 L799.599 18.8205 Z" fill="#000000" fill-rule="nonzero" fill-opacity="1" /><path clip-path="url(#clip000)" d="M883.817 48.0275 L883.817 51.6733 L849.546 51.6733 Q850.033 59.3701 854.165 63.421 Q858.337 67.4314 865.75 67.4314 Q870.044 67.4314 874.054 66.3781 Q878.105 65.3249 882.075 63.2184 L882.075 70.267 Q878.065 71.9684 873.852 72.8596 Q869.639 73.7508 865.305 73.7508 Q854.448 73.7508 848.088 67.4314 Q841.769 61.1119 841.769 50.3365 Q841.769 39.1965 847.764 32.6746 Q853.8 26.1121 864.008 26.1121 Q873.163 26.1121 878.47 32.0264 Q883.817 37.9003 883.817 48.0275 M876.363 45.84 Q876.282 39.7232 872.92 36.0774 Q869.598 32.4315 864.089 32.4315 Q857.851 32.4315 854.084 35.9558 Q850.357 39.4801 849.79 45.8805 L876.363 45.84 Z" fill="#000000" fill-rule="nonzero" fill-opacity="1" /><path clip-path="url(#clip000)" d="M903.424 14.324 L903.424 27.2059 L918.776 27.2059 L918.776 32.9987 L903.424 32.9987 L903.424 57.6282 Q903.424 63.1779 904.922 64.7578 Q906.462 66.3376 911.12 66.3376 L918.776 66.3376 L918.776 72.576 L911.12 72.576 Q902.492 72.576 899.211 69.3758 Q895.929 66.1351 895.929 57.6282 L895.929 32.9987 L890.461 32.9987 L890.461 27.2059 L895.929 27.2059 L895.929 14.324 L903.424 14.324 Z" fill="#000000" fill-rule="nonzero" fill-opacity="1" /><path clip-path="url(#clip000)" d="M967.387 48.0275 L967.387 51.6733 L933.117 51.6733 Q933.603 59.3701 937.735 63.421 Q941.907 67.4314 949.32 67.4314 Q953.614 67.4314 957.625 66.3781 Q961.676 65.3249 965.645 63.2184 L965.645 70.267 Q961.635 71.9684 957.422 72.8596 Q953.209 73.7508 948.875 73.7508 Q938.018 73.7508 931.658 67.4314 Q925.339 61.1119 925.339 50.3365 Q925.339 39.1965 931.334 32.6746 Q937.37 26.1121 947.578 26.1121 Q956.733 26.1121 962.04 32.0264 Q967.387 37.9003 967.387 48.0275 M959.934 45.84 Q959.853 39.7232 956.49 36.0774 Q953.169 32.4315 947.659 32.4315 Q941.421 32.4315 937.654 35.9558 Q933.927 39.4801 933.36 45.8805 L959.934 45.84 Z" fill="#000000" fill-rule="nonzero" fill-opacity="1" /><path clip-path="url(#clip000)" d="M1017.33 45.1919 L1017.33 72.576 L1009.88 72.576 L1009.88 45.4349 Q1009.88 38.994 1007.37 35.7938 Q1004.86 32.5936 999.835 32.5936 Q993.799 32.5936 990.315 36.4419 Q986.832 40.2903 986.832 46.9338 L986.832 72.576 L979.337 72.576 L979.337 27.2059 L986.832 27.2059 L986.832 34.2544 Q989.505 30.163 993.111 28.1376 Q996.756 26.1121 1001.5 26.1121 Q1009.31 26.1121 1013.32 30.9732 Q1017.33 35.7938 1017.33 45.1919 Z" fill="#000000" fill-rule="nonzero" fill-opacity="1" /><path clip-path="url(#clip000)" d="M1039.57 14.324 L1039.57 27.2059 L1054.93 27.2059 L1054.93 32.9987 L1039.57 32.9987 L1039.57 57.6282 Q1039.57 63.1779 1041.07 64.7578 Q1042.61 66.3376 1047.27 66.3376 L1054.93 66.3376 L1054.93 72.576 L1047.27 72.576 Q1038.64 72.576 1035.36 69.3758 Q1032.08 66.1351 1032.08 57.6282 L1032.08 32.9987 L1026.61 32.9987 L1026.61 27.2059 L1032.08 27.2059 L1032.08 14.324 L1039.57 14.324 Z" fill="#000000" fill-rule="nonzero" fill-opacity="1" /><path clip-path="url(#clip000)" d="M1064.73 27.2059 L1072.18 27.2059 L1072.18 72.576 L1064.73 72.576 L1064.73 27.2059 M1064.73 9.54393 L1072.18 9.54393 L1072.18 18.9825 L1064.73 18.9825 L1064.73 9.54393 Z" fill="#000000" fill-rule="nonzero" fill-opacity="1" /><path clip-path="url(#clip000)" d="M1105.36 32.4315 Q1099.37 32.4315 1095.88 37.1306 Q1092.4 41.7891 1092.4 49.9314 Q1092.4 58.0738 1095.84 62.7728 Q1099.33 67.4314 1105.36 67.4314 Q1111.32 67.4314 1114.8 62.7323 Q1118.28 58.0333 1118.28 49.9314 Q1118.28 41.8701 1114.8 37.1711 Q1111.32 32.4315 1105.36 32.4315 M1105.36 26.1121 Q1115.08 26.1121 1120.63 32.4315 Q1126.18 38.7509 1126.18 49.9314 Q1126.18 61.0714 1120.63 67.4314 Q1115.08 73.7508 1105.36 73.7508 Q1095.6 73.7508 1090.05 67.4314 Q1084.54 61.0714 1084.54 49.9314 Q1084.54 38.7509 1090.05 32.4315 Q1095.6 26.1121 1105.36 26.1121 Z" fill="#000000" fill-rule="nonzero" fill-opacity="1" /><path clip-path="url(#clip000)" d="M1176.25 45.1919 L1176.25 72.576 L1168.8 72.576 L1168.8 45.4349 Q1168.8 38.994 1166.29 35.7938 Q1163.78 32.5936 1158.75 32.5936 Q1152.72 32.5936 1149.23 36.4419 Q1145.75 40.2903 1145.75 46.9338 L1145.75 72.576 L1138.25 72.576 L1138.25 27.2059 L1145.75 27.2059 L1145.75 34.2544 Q1148.42 30.163 1152.03 28.1376 Q1155.67 26.1121 1160.41 26.1121 Q1168.23 26.1121 1172.24 30.9732 Q1176.25 35.7938 1176.25 45.1919 Z" fill="#000000" fill-rule="nonzero" fill-opacity="1" /><path clip-path="url(#clip000)" d="M1250.14 28.9478 L1250.14 35.9153 Q1246.98 34.1734 1243.78 33.3227 Q1240.62 32.4315 1237.38 32.4315 Q1230.13 32.4315 1226.12 37.0496 Q1222.11 41.6271 1222.11 49.9314 Q1222.11 58.2358 1226.12 62.8538 Q1230.13 67.4314 1237.38 67.4314 Q1240.62 67.4314 1243.78 66.5807 Q1246.98 65.6895 1250.14 63.9476 L1250.14 70.8341 Q1247.02 72.2924 1243.66 73.0216 Q1240.34 73.7508 1236.57 73.7508 Q1226.32 73.7508 1220.29 67.3098 Q1214.25 60.8689 1214.25 49.9314 Q1214.25 38.832 1220.33 32.472 Q1226.44 26.1121 1237.06 26.1121 Q1240.5 26.1121 1243.78 26.8413 Q1247.06 27.5299 1250.14 28.9478 Z" fill="#000000" fill-rule="nonzero" fill-opacity="1" /><path clip-path="url(#clip000)" d="M1262.33 54.671 L1262.33 27.2059 L1269.79 27.2059 L1269.79 54.3874 Q1269.79 60.8284 1272.3 64.0691 Q1274.81 67.2693 1279.83 67.2693 Q1285.87 67.2693 1289.35 63.421 Q1292.88 59.5726 1292.88 52.9291 L1292.88 27.2059 L1300.33 27.2059 L1300.33 72.576 L1292.88 72.576 L1292.88 65.6084 Q1290.16 69.7404 1286.56 71.7658 Q1282.99 73.7508 1278.25 73.7508 Q1270.44 73.7508 1266.38 68.8897 Q1262.33 64.0286 1262.33 54.671 M1281.09 26.1121 L1281.09 26.1121 Z" fill="#000000" fill-rule="nonzero" fill-opacity="1" /><path clip-path="url(#clip000)" d="M1341.97 34.1734 Q1340.72 33.4443 1339.22 33.1202 Q1337.76 32.7556 1335.98 32.7556 Q1329.66 32.7556 1326.26 36.8875 Q1322.89 40.9789 1322.89 48.6757 L1322.89 72.576 L1315.4 72.576 L1315.4 27.2059 L1322.89 27.2059 L1322.89 34.2544 Q1325.24 30.1225 1329.01 28.1376 Q1332.78 26.1121 1338.17 26.1121 Q1338.94 26.1121 1339.87 26.2337 Q1340.8 26.3147 1341.93 26.5172 L1341.97 34.1734 Z" fill="#000000" fill-rule="nonzero" fill-opacity="1" /><path clip-path="url(#clip000)" d="M1344.45 27.2059 L1352.34 27.2059 L1366.52 65.2844 L1380.7 27.2059 L1388.6 27.2059 L1371.59 72.576 L1361.46 72.576 L1344.45 27.2059 Z" fill="#000000" fill-rule="nonzero" fill-opacity="1" /><path clip-path="url(#clip000)" d="M1437.7 48.0275 L1437.7 51.6733 L1403.43 51.6733 Q1403.91 59.3701 1408.04 63.421 Q1412.22 67.4314 1419.63 67.4314 Q1423.92 67.4314 1427.93 66.3781 Q1431.99 65.3249 1435.96 63.2184 L1435.96 70.267 Q1431.94 71.9684 1427.73 72.8596 Q1423.52 73.7508 1419.18 73.7508 Q1408.33 73.7508 1401.97 67.4314 Q1395.65 61.1119 1395.65 50.3365 Q1395.65 39.1965 1401.64 32.6746 Q1407.68 26.1121 1417.89 26.1121 Q1427.04 26.1121 1432.35 32.0264 Q1437.7 37.9003 1437.7 48.0275 M1430.24 45.84 Q1430.16 39.7232 1426.8 36.0774 Q1423.48 32.4315 1417.97 32.4315 Q1411.73 32.4315 1407.96 35.9558 Q1404.24 39.4801 1403.67 45.8805 L1430.24 45.84 Z" fill="#000000" fill-rule="nonzero" fill-opacity="1" /><path clip-path="url(#clip000)" d="M1478.85 28.5427 L1478.85 35.5912 Q1475.69 33.9709 1472.29 33.1607 Q1468.89 32.3505 1465.24 32.3505 Q1459.69 32.3505 1456.9 34.0519 Q1454.14 35.7533 1454.14 39.156 Q1454.14 41.7486 1456.13 43.2475 Q1458.11 44.7058 1464.11 46.0426 L1466.66 46.6097 Q1474.6 48.3111 1477.92 51.4303 Q1481.29 54.509 1481.29 60.0587 Q1481.29 66.3781 1476.26 70.0644 Q1471.28 73.7508 1462.53 73.7508 Q1458.88 73.7508 1454.91 73.0216 Q1450.98 72.3329 1446.61 70.9151 L1446.61 63.2184 Q1450.74 65.3654 1454.75 66.4591 Q1458.76 67.5124 1462.69 67.5124 Q1467.96 67.5124 1470.79 65.73 Q1473.63 63.9071 1473.63 60.6258 Q1473.63 57.5877 1471.56 55.9673 Q1469.54 54.3469 1462.61 52.8481 L1460.02 52.2405 Q1453.09 50.7821 1450.01 47.7845 Q1446.93 44.7463 1446.93 39.4801 Q1446.93 33.0797 1451.47 29.5959 Q1456.01 26.1121 1464.35 26.1121 Q1468.48 26.1121 1472.13 26.7198 Q1475.78 27.3274 1478.85 28.5427 Z" fill="#000000" fill-rule="nonzero" fill-opacity="1" /><polyline clip-path="url(#clip001)" style="stroke:#4682b4; stroke-linecap:round; stroke-linejoin:round; stroke-width:8; stroke-opacity:1; fill:none" points="290.685,175.757 1011.01,209.332 1128.13,260.938 1196.95,302.353 1245.87,336.385 1283.85,365.166 1314.9,390.045 1341.17,411.919 1363.93,431.414 1384.01,448.981 1401.97,464.956 1418.23,479.596 1433.07,493.099 1446.72,505.624 1459.36,517.3 1471.13,528.231 1482.14,538.503 1492.49,548.189 1502.24,557.351 1511.47,566.04 1520.22,574.302 1528.55,582.175 1536.49,589.694 1544.07,596.888 1551.34,603.782 1558.3,610.401 1565,616.765 1571.44,622.891 1577.65,628.798 1583.64,634.498 1589.42,640.007 1595.02,645.336 1600.44,650.496 1605.69,655.497 1610.79,660.348 1615.74,665.058 1620.55,669.635 1625.22,674.085 1629.78,678.416 1634.21,682.633 1638.53,686.742 1642.75,690.748 1646.86,694.656 1650.88,698.471 1654.81,702.196 1658.64,705.837 1662.39,709.396 1666.07,712.877 1669.66,716.283 1673.18,719.617 1676.63,722.882 1680.01,726.082 1683.33,729.217 1686.58,732.292 1689.77,735.307 1692.9,738.266 1695.98,741.17 1699,744.021 1701.97,746.821 1704.89,749.572 1707.76,752.275 1710.58,754.933 1713.36,757.545 1716.09,760.115 1718.78,762.643 1721.42,765.13 1724.03,767.578 1726.6,769.988 1729.13,772.362 1731.62,774.699 1734.08,777.002 1736.5,779.27 1738.89,781.506 1741.24,783.71 1743.57,785.883 1745.86,788.026 1748.12,790.139 1750.35,792.224 1752.56,794.28 1754.73,796.31 1756.88,798.313 1759,800.29 1761.09,802.242 1763.16,804.169 1765.21,806.072 1767.23,807.952 1769.23,809.809 1771.2,811.644 1773.15,813.457 1775.08,815.248 1776.99,817.019 1778.88,818.769 1780.74,820.499 1782.59,822.21 1784.42,823.902 1786.22,825.575 1788.01,827.23 1789.78,828.867 1791.53,830.486 1793.26,832.089 1794.98,833.674 1796.68,835.243 1798.36,836.796 1800.03,838.333 1801.68,839.855 1803.31,841.361 1804.93,842.852 1806.53,844.329 1808.12,845.791 1809.7,847.24 1811.26,848.674 1812.8,850.095 1814.33,851.503 1815.85,852.897 1817.35,854.279 1818.85,855.648 1820.32,857.004 1821.79,858.349 1823.24,859.681 1824.68,861.002 1826.11,862.311 1827.53,863.609 1828.94,864.895 1830.33,866.171 1831.71,867.435 1833.08,868.689 1834.45,869.933 1835.79,871.166 1837.13,872.389 1838.46,873.603 1839.78,874.806 1841.09,876 1842.39,877.184 1843.68,878.358 1844.96,879.524 1846.23,880.68 1847.49,881.828 1848.74,882.967 1849.98,884.097 1851.21,885.218 1852.44,886.331 1853.65,887.436 1854.86,888.532 1856.06,889.62 1857.25,890.701 1858.43,891.773 1859.6,892.838 1860.77,893.895 1861.93,894.945 1863.08,895.987 1864.22,897.022 1865.35,898.05 1866.48,899.07 1867.6,900.084 1868.71,901.09 1869.82,902.09 1870.92,903.083 1872.01,904.069 1873.09,905.049 1874.17,906.022 1875.24,906.989 1876.3,907.95 1877.36,908.904 1878.41,909.852 1879.46,910.794 1880.49,911.73 1881.53,912.66 1882.55,913.584 1883.57,914.502 1884.58,915.414 1885.59,916.321 1886.59,917.223 1887.59,918.118 1888.58,919.009 1889.56,919.894 1890.54,920.773 1891.51,921.647 1892.48,922.516 1893.44,923.38 1894.4,924.239 1895.35,925.093 1896.3,925.942 1897.24,926.785 1898.18,927.624 1899.11,928.459 1900.03,929.288 1900.95,930.113 1901.87,930.933 1902.78,931.748 1903.68,932.559 1904.59,933.365 1905.48,934.167 1906.37,934.965 1907.26,935.758 1908.14,936.547 1909.02,937.331 1909.89,938.112 1910.76,938.888 1911.63,939.66 1912.49,940.428 1913.34,941.191 1914.2,941.951 1915.04,942.707 1915.89,943.459 1916.73,944.207 1917.56,944.951 1918.39,945.691 1919.22,946.428 1920.04,947.161 1920.86,947.89 1921.68,948.615 1922.49,949.337 1923.3,950.055 1924.1,950.77 1924.9,951.481 1925.69,952.188 1926.49,952.893 1927.28,953.593 1928.06,954.291 1928.84,954.985 1929.62,955.675 1930.4,956.362 1931.17,957.046 1931.93,957.727 1932.7,958.405 1933.46,959.079 1934.22,959.75 1934.97,960.418 1935.72,961.083 1936.47,961.745 1937.21,962.404 1937.95,963.06 1938.69,963.713 1939.42,964.363 1940.16,965.01 1940.88,965.654 1941.61,966.295 1942.33,966.933 1943.05,967.569 1943.77,968.202 1944.48,968.831 1945.19,969.459 1945.9,970.083 1946.6,970.705 1947.3,971.323 1948,971.94 1948.7,972.553 1949.39,973.164 1950.08,973.773 1950.77,974.379 1951.45,974.982 1952.13,975.582 1952.81,976.181 1953.49,976.776 1954.16,977.369 1954.83,977.96 1955.5,978.548 1956.17,979.134 1956.83,979.718 1957.49,980.299 1958.15,980.878 1958.8,981.454 1959.46,982.028 1960.11,982.6 1960.76,983.169 1961.4,983.736 1962.04,984.301 1962.69,984.864 1963.32,985.424 1963.96,985.982 1964.59,986.538 1965.22,987.092 1965.85,987.644 1966.48,988.194 1967.1,988.741 1967.73,989.286 1968.35,989.83 1968.96,990.371 1969.58,990.91 1970.19,991.447 1970.8,991.982 1971.41,992.515 1972.02,993.046 1972.62,993.575 1973.23,994.102 1973.83,994.627 1974.42,995.15 1975.02,995.672 1975.61,996.191 1976.21,996.708 1976.8,997.224 1977.38,997.737 1977.97,998.249 1978.55,998.759 1979.14,999.267 1979.72,999.773 1980.29,1000.28 1980.87,1000.78 1981.44,1001.28 1982.02,1001.78 "/>
<polyline clip-path="url(#clip001)" style="stroke:#ff8c00; stroke-linecap:round; stroke-linejoin:round; stroke-width:8; stroke-opacity:1; fill:none" points="290.685,141.15 541.415,141.27 638.894,141.411 700.564,141.579 745.777,141.777 781.491,142.011 811.013,142.351 836.176,142.88 858.103,143.462 877.532,144.095 894.976,144.777 910.801,145.507 925.284,146.282 938.633,147.103 951.015,147.966 962.559,148.873 973.372,149.821 983.541,150.809 993.138,151.838 1002.23,152.905 1010.85,154.01 1019.06,155.153 1026.9,156.332 1034.39,157.548 1041.57,158.799 1048.46,160.085 1055.08,161.405 1061.45,162.758 1067.59,164.145 1073.53,165.564 1079.26,167.016 1084.8,168.499 1090.17,170.013 1095.38,171.558 1100.43,173.132 1105.34,174.737 1110.11,176.371 1114.75,178.034 1119.27,179.725 1123.67,181.444 1127.97,183.191 1132.15,184.965 1136.24,186.766 1140.23,188.593 1144.13,190.446 1147.94,192.326 1151.67,194.23 1155.32,196.159 1158.89,198.114 1162.39,200.092 1165.82,202.094 1169.18,204.12 1172.48,206.169 1175.71,208.241 1178.89,210.336 1182.01,212.453 1185.07,214.592 1188.07,216.753 1191.03,218.935 1193.93,221.138 1196.79,223.362 1199.6,225.607 1202.36,227.871 1205.08,230.156 1207.76,232.46 1210.39,234.783 1212.99,237.125 1215.54,239.486 1218.06,241.866 1220.55,244.263 1222.99,246.679 1225.41,249.112 1227.78,251.563 1230.13,254.031 1232.44,256.515 1234.73,259.016 1236.98,261.534 1239.2,264.068 1241.4,266.617 1243.57,269.182 1245.71,271.762 1247.82,274.358 1249.91,276.968 1251.97,279.593 1254.01,282.232 1256.02,284.886 1258.01,287.553 1259.98,290.234 1261.93,292.929 1263.85,295.637 1265.75,298.357 1267.63,301.091 1269.49,303.837 1271.33,306.595 1273.15,309.366 1274.95,312.148 1276.74,314.942 1278.5,317.748 1280.25,320.565 1281.98,323.393 1283.69,326.232 1285.38,329.081 1287.06,331.941 1288.72,334.812 1290.37,337.692 1292,340.582 1293.61,343.482 1295.21,346.392 1296.79,349.31 1298.36,352.238 1299.92,355.175 1301.46,358.121 1302.99,361.075 1304.5,364.037 1306,367.008 1307.49,369.987 1308.97,372.974 1310.43,375.968 1311.88,378.97 1313.31,381.979 1314.74,384.996 1316.15,388.019 1317.56,391.049 1318.95,394.086 1320.33,397.13 1321.69,400.18 1323.05,403.236 1324.4,406.298 1325.74,409.366 1327.06,412.44 1328.38,415.519 1329.68,418.604 1330.98,421.695 1332.26,424.79 1333.54,427.89 1334.81,430.995 1336.07,434.105 1337.31,437.22 1338.55,440.339 1339.78,443.462 1341.01,446.59 1342.22,449.721 1343.42,452.857 1344.62,455.996 1345.81,459.139 1346.99,462.285 1348.16,465.435 1349.32,468.588 1350.48,471.744 1351.62,474.903 1352.76,478.065 1353.9,481.23 1355.02,484.398 1356.14,487.568 1357.25,490.74 1358.35,493.915 1359.45,497.092 1360.54,500.271 1361.62,503.452 1362.7,506.635 1363.76,509.82 1364.83,513.006 1365.88,516.194 1366.93,519.384 1367.97,522.574 1369.01,525.766 1370.04,528.959 1371.06,532.154 1372.08,535.349 1373.09,538.544 1374.1,541.741 1375.1,544.938 1376.09,548.136 1377.08,551.335 1378.06,554.533 1379.04,557.732 1380.01,560.931 1380.98,564.131 1381.94,567.33 1382.89,570.529 1383.84,573.729 1384.79,576.927 1385.73,580.126 1386.66,583.324 1387.59,586.522 1388.52,589.719 1389.44,592.916 1390.35,596.112 1391.26,599.307 1392.16,602.501 1393.06,605.694 1393.96,608.886 1394.85,612.078 1395.73,615.268 1396.62,618.457 1397.49,621.644 1398.36,624.83 1399.23,628.015 1400.1,631.199 1400.95,634.38 1401.81,637.561 1402.66,640.739 1403.51,643.916 1404.35,647.091 1405.19,650.264 1406.02,653.435 1406.85,656.604 1407.68,659.772 1408.5,662.937 1409.32,666.1 1410.13,669.26 1410.94,672.419 1411.75,675.575 1412.55,678.729 1413.35,681.88 1414.14,685.029 1414.93,688.175 1415.72,691.319 1416.51,694.46 1417.29,697.599 1418.06,700.735 1418.84,703.868 1419.61,706.998 1420.37,710.125 1421.14,713.25 1421.9,716.371 1422.65,719.49 1423.41,722.605 1424.16,725.718 1424.9,728.827 1425.65,731.933 1426.39,735.036 1427.12,738.136 1427.86,741.233 1428.59,744.326 1429.31,747.416 1430.04,750.502 1430.76,753.585 1431.48,756.665 1432.19,759.741 1432.9,762.813 1433.61,765.882 1434.32,768.947 1435.02,772.009 1435.72,775.067 1436.42,778.122 1437.12,781.172 1437.81,784.219 1438.5,787.263 1439.18,790.302 1439.87,793.337 1440.55,796.369 1441.23,799.397 1441.9,802.421 1442.58,805.44 1443.25,808.456 1443.91,811.468 1444.58,814.476 1445.24,817.48 1445.9,820.48 1446.56,823.475 1447.21,826.467 1447.86,829.454 1448.51,832.438 1449.16,835.417 1449.81,838.392 1450.45,841.362 1451.09,844.329 1451.73,847.291 1452.36,850.248 1453,853.202 1453.63,856.151 1454.25,859.096 1454.88,862.036 1455.5,864.972 1456.13,867.904 1456.75,870.831 1457.36,873.754 1457.98,876.673 1458.59,879.587 1459.2,882.496 1459.81,885.401 1460.41,888.302 1461.02,891.197 1461.62,894.089 1462.22,896.976 1462.82,899.858 1463.41,902.736 1464.01,905.609 1464.6,908.477 1465.19,911.341 1465.77,914.201 1466.36,917.055 1466.94,919.905 1467.52,922.751 1468.1,925.591 1468.68,928.427 1469.26,931.259 1469.83,934.086 1470.4,936.907 "/>
<path clip-path="url(#clip000)" d="M1513.07 301.26 L1973 301.26 L1973 145.74 L1513.07 145.74  Z" fill="#ffffff" fill-rule="evenodd" fill-opacity="1"/>
<polyline clip-path="url(#clip000)" style="stroke:#000000; stroke-linecap:round; stroke-linejoin:round; stroke-width:4; stroke-opacity:1; fill:none" points="1513.07,301.26 1973,301.26 1973,145.74 1513.07,145.74 1513.07,301.26 "/>
<polyline clip-path="url(#clip000)" style="stroke:#4682b4; stroke-linecap:round; stroke-linejoin:round; stroke-width:8; stroke-opacity:1; fill:none" points="1532.99,197.58 1652.51,197.58 "/>
<path clip-path="url(#clip000)" d="M1700.3 182.962 L1700.3 187.892 Q1697.94 185.693 1695.25 184.605 Q1692.59 183.517 1689.58 183.517 Q1683.66 183.517 1680.51 187.151 Q1677.36 190.762 1677.36 197.614 Q1677.36 204.443 1680.51 208.077 Q1683.66 211.688 1689.58 211.688 Q1692.59 211.688 1695.25 210.6 Q1697.94 209.512 1700.3 207.313 L1700.3 212.198 Q1697.85 213.864 1695.09 214.698 Q1692.36 215.531 1689.3 215.531 Q1681.46 215.531 1676.94 210.739 Q1672.43 205.924 1672.43 197.614 Q1672.43 189.281 1676.94 184.489 Q1681.46 179.675 1689.3 179.675 Q1692.41 179.675 1695.14 180.508 Q1697.89 181.318 1700.3 182.962 Z" fill="#000000" fill-rule="nonzero" fill-opacity="1" /><path clip-path="url(#clip000)" d="M1707.34 178.841 L1711.6 178.841 L1711.6 214.86 L1707.34 214.86 L1707.34 178.841 Z" fill="#000000" fill-rule="nonzero" fill-opacity="1" /><path clip-path="url(#clip000)" d="M1732.29 201.827 Q1727.13 201.827 1725.14 203.008 Q1723.15 204.188 1723.15 207.036 Q1723.15 209.304 1724.63 210.647 Q1726.13 211.966 1728.7 211.966 Q1732.24 211.966 1734.37 209.466 Q1736.53 206.943 1736.53 202.776 L1736.53 201.827 L1732.29 201.827 M1740.78 200.068 L1740.78 214.86 L1736.53 214.86 L1736.53 210.924 Q1735.07 213.285 1732.89 214.42 Q1730.72 215.531 1727.57 215.531 Q1723.59 215.531 1721.22 213.309 Q1718.89 211.063 1718.89 207.313 Q1718.89 202.938 1721.8 200.716 Q1724.74 198.494 1730.55 198.494 L1736.53 198.494 L1736.53 198.077 Q1736.53 195.137 1734.58 193.54 Q1732.66 191.92 1729.16 191.92 Q1726.94 191.92 1724.84 192.452 Q1722.73 192.985 1720.79 194.049 L1720.79 190.114 Q1723.12 189.212 1725.32 188.772 Q1727.52 188.309 1729.6 188.309 Q1735.23 188.309 1738.01 191.225 Q1740.78 194.142 1740.78 200.068 Z" fill="#000000" fill-rule="nonzero" fill-opacity="1" /><path clip-path="url(#clip000)" d="M1760.34 217.267 Q1758.54 221.897 1756.83 223.309 Q1755.11 224.721 1752.24 224.721 L1748.84 224.721 L1748.84 221.156 L1751.34 221.156 Q1753.1 221.156 1754.07 220.322 Q1755.04 219.489 1756.22 216.387 L1756.99 214.443 L1746.5 188.934 L1751.02 188.934 L1759.12 209.211 L1767.22 188.934 L1771.73 188.934 L1760.34 217.267 Z" fill="#000000" fill-rule="nonzero" fill-opacity="1" /><path clip-path="url(#clip000)" d="M1802.91 178.888 Q1799.81 184.212 1798.31 189.42 Q1796.8 194.628 1796.8 199.975 Q1796.8 205.323 1798.31 210.577 Q1799.84 215.809 1802.91 221.11 L1799.21 221.11 Q1795.74 215.67 1794 210.415 Q1792.29 205.161 1792.29 199.975 Q1792.29 194.813 1794 189.582 Q1795.72 184.35 1799.21 178.888 L1802.91 178.888 Z" fill="#000000" fill-rule="nonzero" fill-opacity="1" /><path clip-path="url(#clip000)" d="M1831.36 193.911 Q1832.96 191.04 1835.18 189.674 Q1837.4 188.309 1840.41 188.309 Q1844.46 188.309 1846.66 191.156 Q1848.86 193.98 1848.86 199.211 L1848.86 214.86 L1844.58 214.86 L1844.58 199.35 Q1844.58 195.624 1843.26 193.818 Q1841.94 192.012 1839.23 192.012 Q1835.92 192.012 1834 194.212 Q1832.08 196.411 1832.08 200.207 L1832.08 214.86 L1827.8 214.86 L1827.8 199.35 Q1827.8 195.6 1826.48 193.818 Q1825.16 192.012 1822.4 192.012 Q1819.14 192.012 1817.22 194.235 Q1815.3 196.434 1815.3 200.207 L1815.3 214.86 L1811.02 214.86 L1811.02 188.934 L1815.3 188.934 L1815.3 192.962 Q1816.76 190.577 1818.79 189.443 Q1820.83 188.309 1823.63 188.309 Q1826.46 188.309 1828.42 189.744 Q1830.41 191.179 1831.36 193.911 Z" fill="#000000" fill-rule="nonzero" fill-opacity="1" /><path clip-path="url(#clip000)" d="M1869.14 201.827 Q1863.98 201.827 1861.99 203.008 Q1860 204.188 1860 207.036 Q1860 209.304 1861.48 210.647 Q1862.98 211.966 1865.55 211.966 Q1869.09 211.966 1871.22 209.466 Q1873.38 206.943 1873.38 202.776 L1873.38 201.827 L1869.14 201.827 M1877.64 200.068 L1877.64 214.86 L1873.38 214.86 L1873.38 210.924 Q1871.92 213.285 1869.74 214.42 Q1867.57 215.531 1864.42 215.531 Q1860.44 215.531 1858.08 213.309 Q1855.74 211.063 1855.74 207.313 Q1855.74 202.938 1858.65 200.716 Q1861.59 198.494 1867.4 198.494 L1873.38 198.494 L1873.38 198.077 Q1873.38 195.137 1871.43 193.54 Q1869.51 191.92 1866.02 191.92 Q1863.79 191.92 1861.69 192.452 Q1859.58 192.985 1857.64 194.049 L1857.64 190.114 Q1859.97 189.212 1862.17 188.772 Q1864.37 188.309 1866.46 188.309 Q1872.08 188.309 1874.86 191.225 Q1877.64 194.142 1877.64 200.068 Z" fill="#000000" fill-rule="nonzero" fill-opacity="1" /><path clip-path="url(#clip000)" d="M1890.62 181.573 L1890.62 188.934 L1899.4 188.934 L1899.4 192.244 L1890.62 192.244 L1890.62 206.318 Q1890.62 209.489 1891.48 210.392 Q1892.36 211.295 1895.02 211.295 L1899.4 211.295 L1899.4 214.86 L1895.02 214.86 Q1890.09 214.86 1888.21 213.031 Q1886.34 211.179 1886.34 206.318 L1886.34 192.244 L1883.21 192.244 L1883.21 188.934 L1886.34 188.934 L1886.34 181.573 L1890.62 181.573 Z" fill="#000000" fill-rule="nonzero" fill-opacity="1" /><path clip-path="url(#clip000)" d="M1906.41 210.924 L1914.05 210.924 L1914.05 184.559 L1905.74 186.225 L1905.74 181.966 L1914 180.3 L1918.68 180.3 L1918.68 210.924 L1926.32 210.924 L1926.32 214.86 L1906.41 214.86 L1906.41 210.924 Z" fill="#000000" fill-rule="nonzero" fill-opacity="1" /><path clip-path="url(#clip000)" d="M1934.49 178.888 L1938.19 178.888 Q1941.66 184.35 1943.38 189.582 Q1945.11 194.813 1945.11 199.975 Q1945.11 205.161 1943.38 210.415 Q1941.66 215.67 1938.19 221.11 L1934.49 221.11 Q1937.57 215.809 1939.07 210.577 Q1940.6 205.323 1940.6 199.975 Q1940.6 194.628 1939.07 189.42 Q1937.57 184.212 1934.49 178.888 Z" fill="#000000" fill-rule="nonzero" fill-opacity="1" /><polyline clip-path="url(#clip000)" style="stroke:#ff8c00; stroke-linecap:round; stroke-linejoin:round; stroke-width:8; stroke-opacity:1; fill:none" points="1532.99,249.42 1652.51,249.42 "/>
<path clip-path="url(#clip000)" d="M1688.82 250.496 Q1690.32 251.005 1691.73 252.672 Q1693.17 254.339 1694.6 257.255 L1699.35 266.7 L1694.33 266.7 L1689.91 257.834 Q1688.19 254.362 1686.57 253.227 Q1684.98 252.093 1682.2 252.093 L1677.1 252.093 L1677.1 266.7 L1672.43 266.7 L1672.43 232.14 L1682.98 232.14 Q1688.91 232.14 1691.83 234.616 Q1694.74 237.093 1694.74 242.093 Q1694.74 245.357 1693.22 247.51 Q1691.71 249.663 1688.82 250.496 M1677.1 235.982 L1677.1 248.251 L1682.98 248.251 Q1686.36 248.251 1688.08 246.7 Q1689.81 245.126 1689.81 242.093 Q1689.81 239.061 1688.08 237.533 Q1686.36 235.982 1682.98 235.982 L1677.1 235.982 Z" fill="#000000" fill-rule="nonzero" fill-opacity="1" /><path clip-path="url(#clip000)" d="M1713.1 243.76 Q1709.67 243.76 1707.68 246.445 Q1705.69 249.107 1705.69 253.76 Q1705.69 258.413 1707.66 261.098 Q1709.65 263.76 1713.1 263.76 Q1716.5 263.76 1718.49 261.075 Q1720.48 258.389 1720.48 253.76 Q1720.48 249.153 1718.49 246.468 Q1716.5 243.76 1713.1 243.76 M1713.1 240.149 Q1718.66 240.149 1721.83 243.76 Q1725 247.371 1725 253.76 Q1725 260.126 1721.83 263.76 Q1718.66 267.371 1713.1 267.371 Q1707.52 267.371 1704.35 263.76 Q1701.2 260.126 1701.2 253.76 Q1701.2 247.371 1704.35 243.76 Q1707.52 240.149 1713.1 240.149 Z" fill="#000000" fill-rule="nonzero" fill-opacity="1" /><path clip-path="url(#clip000)" d="M1750.72 241.769 L1750.72 245.751 Q1748.91 244.755 1747.08 244.269 Q1745.28 243.76 1743.42 243.76 Q1739.28 243.76 1736.99 246.399 Q1734.7 249.014 1734.7 253.76 Q1734.7 258.505 1736.99 261.144 Q1739.28 263.76 1743.42 263.76 Q1745.28 263.76 1747.08 263.274 Q1748.91 262.764 1750.72 261.769 L1750.72 265.704 Q1748.93 266.538 1747.01 266.954 Q1745.11 267.371 1742.96 267.371 Q1737.1 267.371 1733.66 263.69 Q1730.21 260.01 1730.21 253.76 Q1730.21 247.417 1733.68 243.783 Q1737.17 240.149 1743.24 240.149 Q1745.21 240.149 1747.08 240.565 Q1748.96 240.959 1750.72 241.769 Z" fill="#000000" fill-rule="nonzero" fill-opacity="1" /><path clip-path="url(#clip000)" d="M1757.96 230.681 L1762.24 230.681 L1762.24 251.954 L1774.95 240.774 L1780.39 240.774 L1766.64 252.903 L1780.97 266.7 L1775.41 266.7 L1762.24 254.038 L1762.24 266.7 L1757.96 266.7 L1757.96 230.681 Z" fill="#000000" fill-rule="nonzero" fill-opacity="1" /><path clip-path="url(#clip000)" d="M1810.88 230.728 Q1807.78 236.052 1806.27 241.26 Q1804.77 246.468 1804.77 251.815 Q1804.77 257.163 1806.27 262.417 Q1807.8 267.649 1810.88 272.95 L1807.17 272.95 Q1803.7 267.51 1801.97 262.255 Q1800.25 257.001 1800.25 251.815 Q1800.25 246.653 1801.97 241.422 Q1803.68 236.19 1807.17 230.728 L1810.88 230.728 Z" fill="#000000" fill-rule="nonzero" fill-opacity="1" /><path clip-path="url(#clip000)" d="M1839.33 245.751 Q1840.92 242.88 1843.15 241.514 Q1845.37 240.149 1848.38 240.149 Q1852.43 240.149 1854.63 242.996 Q1856.83 245.82 1856.83 251.051 L1856.83 266.7 L1852.54 266.7 L1852.54 251.19 Q1852.54 247.464 1851.22 245.658 Q1849.9 243.852 1847.2 243.852 Q1843.89 243.852 1841.96 246.052 Q1840.04 248.251 1840.04 252.047 L1840.04 266.7 L1835.76 266.7 L1835.76 251.19 Q1835.76 247.44 1834.44 245.658 Q1833.12 243.852 1830.37 243.852 Q1827.1 243.852 1825.18 246.075 Q1823.26 248.274 1823.26 252.047 L1823.26 266.7 L1818.98 266.7 L1818.98 240.774 L1823.26 240.774 L1823.26 244.802 Q1824.72 242.417 1826.76 241.283 Q1828.79 240.149 1831.59 240.149 Q1834.42 240.149 1836.39 241.584 Q1838.38 243.019 1839.33 245.751 Z" fill="#000000" fill-rule="nonzero" fill-opacity="1" /><path clip-path="url(#clip000)" d="M1877.1 253.667 Q1871.94 253.667 1869.95 254.848 Q1867.96 256.028 1867.96 258.876 Q1867.96 261.144 1869.44 262.487 Q1870.95 263.806 1873.52 263.806 Q1877.06 263.806 1879.19 261.306 Q1881.34 258.783 1881.34 254.616 L1881.34 253.667 L1877.1 253.667 M1885.6 251.908 L1885.6 266.7 L1881.34 266.7 L1881.34 262.764 Q1879.88 265.125 1877.71 266.26 Q1875.53 267.371 1872.38 267.371 Q1868.4 267.371 1866.04 265.149 Q1863.7 262.903 1863.7 259.153 Q1863.7 254.778 1866.62 252.556 Q1869.56 250.334 1875.37 250.334 L1881.34 250.334 L1881.34 249.917 Q1881.34 246.977 1879.4 245.38 Q1877.47 243.76 1873.98 243.76 Q1871.76 243.76 1869.65 244.292 Q1867.54 244.825 1865.6 245.889 L1865.6 241.954 Q1867.94 241.052 1870.14 240.612 Q1872.34 240.149 1874.42 240.149 Q1880.04 240.149 1882.82 243.065 Q1885.6 245.982 1885.6 251.908 Z" fill="#000000" fill-rule="nonzero" fill-opacity="1" /><path clip-path="url(#clip000)" d="M1898.58 233.413 L1898.58 240.774 L1907.36 240.774 L1907.36 244.084 L1898.58 244.084 L1898.58 258.158 Q1898.58 261.329 1899.44 262.232 Q1900.32 263.135 1902.98 263.135 L1907.36 263.135 L1907.36 266.7 L1902.98 266.7 Q1898.05 266.7 1896.18 264.871 Q1894.3 263.019 1894.3 258.158 L1894.3 244.084 L1891.18 244.084 L1891.18 240.774 L1894.3 240.774 L1894.3 233.413 L1898.58 233.413 Z" fill="#000000" fill-rule="nonzero" fill-opacity="1" /><path clip-path="url(#clip000)" d="M1917.59 262.764 L1933.91 262.764 L1933.91 266.7 L1911.96 266.7 L1911.96 262.764 Q1914.63 260.01 1919.21 255.38 Q1923.82 250.727 1925 249.385 Q1927.24 246.862 1928.12 245.126 Q1929.02 243.366 1929.02 241.677 Q1929.02 238.922 1927.08 237.186 Q1925.16 235.45 1922.06 235.45 Q1919.86 235.45 1917.4 236.214 Q1914.97 236.977 1912.2 238.528 L1912.2 233.806 Q1915.02 232.672 1917.47 232.093 Q1919.93 231.515 1921.96 231.515 Q1927.33 231.515 1930.53 234.2 Q1933.72 236.885 1933.72 241.376 Q1933.72 243.505 1932.91 245.427 Q1932.13 247.325 1930.02 249.917 Q1929.44 250.589 1926.34 253.806 Q1923.24 257.001 1917.59 262.764 Z" fill="#000000" fill-rule="nonzero" fill-opacity="1" /><path clip-path="url(#clip000)" d="M1942.45 230.728 L1946.15 230.728 Q1949.63 236.19 1951.34 241.422 Q1953.08 246.653 1953.08 251.815 Q1953.08 257.001 1951.34 262.255 Q1949.63 267.51 1946.15 272.95 L1942.45 272.95 Q1945.53 267.649 1947.03 262.417 Q1948.56 257.163 1948.56 251.815 Q1948.56 246.468 1947.03 241.26 Q1945.53 236.052 1942.45 230.728 Z" fill="#000000" fill-rule="nonzero" fill-opacity="1" /></svg>
